<svg xmlns="http://www.w3.org/2000/svg" xmlns:xlink="http://www.w3.org/1999/xlink" width="24" height="24" viewBox="0 0 24 24"><defs><style>.a{fill:none;}.b{clip-path:url(#a);}.c{clip-path:url(#b);}.d{clip-path:url(#c);}</style><clipPath id="a"><path d="M10.052-4.835a1,1,0,0,1,1.2.568l.039.11A.739.739,0,0,0,12-3.626a.739.739,0,0,0,.671-.43l.038-.1a1,1,0,0,1,1.241-.678,1,1,0,0,1,.678,1.241A2.739,2.739,0,0,1,12-1.626,2.739,2.739,0,0,1,9.374-3.593,1,1,0,0,1,10.052-4.835Z"/></clipPath><clipPath id="b"><path d="M12-22.375a1,1,0,0,1,.993.883l.007.117V-19.5a1,1,0,0,1-1,1,1,1,0,0,1-.993-.883L11-19.5v-1.875A1,1,0,0,1,12-22.375Z"/></clipPath><clipPath id="c"><path d="M12-20.5a7.25,7.25,0,0,0-7.246,7.011l0,.239a18.6,18.6,0,0,1-.584,5.134,5.809,5.809,0,0,1-.363.959l-.09.166A1,1,0,0,0,4.5-5.375h15a1,1,0,0,0,.712-1.7l-.065-.06.022.018a.423.423,0,0,1-.047-.066l-.064-.12a5.288,5.288,0,0,1-.31-.881,20.116,20.116,0,0,1-.5-5.065A7.25,7.25,0,0,0,12-20.5Zm0,2a5.25,5.25,0,0,1,5.25,5.25l0,.388a20.521,20.521,0,0,0,.6,5.381l.032.106H6.03l.054-.175a20.508,20.508,0,0,0,.666-5.7A5.25,5.25,0,0,1,12-18.5Z"/></clipPath></defs><path class="a" d="M0,0H24V-24H0Z" transform="translate(0 24)"/><g transform="translate(0 24)"><g class="b"><path d="M4.333-9.875H19.671V3.374H4.333Z"/></g><g class="c"><path d="M6-27.375H18V-13.5H6Z"/></g><g class="d"><path d="M-1.5-25.5h27V-.375h-27Z"/></g></g></svg>