<svg xmlns="http://www.w3.org/2000/svg" xmlns:xlink="http://www.w3.org/1999/xlink" width="24" height="24" viewBox="0 0 24 24"><defs><style>.a{fill:none;}.b{fill:#555;}.c{clip-path:url(#a);}.d{clip-path:url(#b);}.e{clip-path:url(#c);}.f{clip-path:url(#d);}.g{clip-path:url(#e);}</style><clipPath id="a"><path class="a" d="M0,0H24V-24H0Z" transform="translate(0 24)"/></clipPath><clipPath id="b"><path class="b" d="M19.877-19.625H4.127a2.25,2.25,0,0,0-2.25,2.25v13.25a2.25,2.25,0,0,0,2.25,2.25h15.75a2.25,2.25,0,0,0,2.25-2.25v-13.25A2.25,2.25,0,0,0,19.877-19.625Zm-15.75,1.5h15.75a.75.75,0,0,1,.75.75v13.25a.75.75,0,0,1-.75.75H4.127a.75.75,0,0,1-.75-.75v-13.25A.75.75,0,0,1,4.127-18.125Z" transform="translate(-1.877 19.625)"/></clipPath><clipPath id="c"><path class="b" d="M21.377-14.625a.75.75,0,0,1,.75.75.75.75,0,0,1-.648.743l-.1.007H2.627a.75.75,0,0,1-.75-.75.75.75,0,0,1,.648-.743l.1-.007Z" transform="translate(-1.877 14.625)"/></clipPath><clipPath id="d"><path class="b" d="M7.627-22.125a.75.75,0,0,1,.743.648l.007.1V-17a.75.75,0,0,1-.75.75.75.75,0,0,1-.743-.648L6.877-17v-4.375A.75.75,0,0,1,7.627-22.125Z" transform="translate(-6.877 22.125)"/></clipPath><clipPath id="e"><path class="b" d="M16.377-22.125a.75.75,0,0,1,.743.648l.007.1V-17a.75.75,0,0,1-.75.75.75.75,0,0,1-.743-.648l-.007-.1v-4.375A.75.75,0,0,1,16.377-22.125Z" transform="translate(-15.627 22.125)"/></clipPath></defs><g class="c"><path class="a" d="M-5-29H29V5H-5Z" transform="translate(0 24)"/></g><g class="d" transform="translate(1.877 4.375)"><path class="b" d="M-3.123-24.625h30.25V3.125H-3.123Z" transform="translate(-1.877 19.625)"/></g><g class="e" transform="translate(1.877 9.375)"><path class="b" d="M-3.123-19.625h30.25v11.5H-3.123Z" transform="translate(-1.877 14.625)"/></g><g class="f" transform="translate(6.877 1.875)"><path class="b" d="M1.877-27.125h11.5V-11.25H1.877Z" transform="translate(-6.877 22.125)"/></g><g class="g" transform="translate(15.627 1.875)"><path class="b" d="M10.627-27.125h11.5V-11.25h-11.5Z" transform="translate(-15.627 22.125)"/></g></svg>