<svg xmlns="http://www.w3.org/2000/svg" xmlns:xlink="http://www.w3.org/1999/xlink" width="64" height="64" viewBox="0 0 64 64"><defs><style>.a{fill:none;}.b,.f{fill:#fff;}.b{clip-rule:evenodd;}.c{fill:#af1e23;}.d{clip-path:url(#a);}.e{clip-path:url(#b);}</style><clipPath id="a"><path class="a" d="M0,24H48V-24H0Z" transform="translate(0 24)"/></clipPath><clipPath id="b"><path class="b" d="M29.047-20a4.251,4.251,0,0,1,3.8,2.349h0L33.924-15.5h2.139A4.25,4.25,0,0,1,40.3-11.554h0l.011.3v18A4.25,4.25,0,0,1,36.063,11H6.813a4.25,4.25,0,0,1-4.25-4.25h0v-18a4.25,4.25,0,0,1,4.25-4.25h2.5v-1a2,2,0,0,1,2-2A2,2,0,0,1,13.3-16.733l.013.233v1H15.7l1.077-2.151a4.25,4.25,0,0,1,3.482-2.337h0l.32-.012Zm0,4H20.578a.25.25,0,0,0-.224.138h0l-1.627,3.257A2,2,0,0,1,16.938-11.5H6.813a.25.25,0,0,0-.25.25h0v18a.25.25,0,0,0,.25.25h29.25a.25.25,0,0,0,.25-.25h0v-18a.25.25,0,0,0-.25-.25H32.688A2,2,0,0,1,30.9-12.606h0l-1.627-3.256A.25.25,0,0,0,29.047-16Zm-4.21,3.6a9,9,0,0,1,9,9,9,9,0,0,1-9,9,9,9,0,0,1-9-9A9,9,0,0,1,24.838-12.4Zm0,4a5,5,0,0,0-5,5,5,5,0,0,0,5,5,5,5,0,0,0,5-5A5,5,0,0,0,24.838-8.4ZM10-10l.262.013a2.563,2.563,0,0,1,2.3,2.549A2.563,2.563,0,0,1,10-4.875,2.563,2.563,0,0,1,7.438-7.438a2.563,2.563,0,0,1,2.3-2.549Z" transform="translate(-2.563 20)"/></clipPath></defs><g transform="translate(0.439)"><circle class="c" cx="32" cy="32" r="32" transform="translate(-0.439)"/><g transform="translate(7.561 8)"><g class="d"><path class="a" d="M-5-29H63V39H-5Z" transform="translate(-5 19)"/></g><g class="e" transform="translate(5.125 8)"><path class="f" d="M-2.437-25h57.75V26H-2.437Z" transform="translate(-7.563 15)"/></g></g></g></svg>