<svg xmlns="http://www.w3.org/2000/svg" xmlns:xlink="http://www.w3.org/1999/xlink" width="24" height="24" viewBox="0 0 24 24"><defs><style>.a{clip-rule:evenodd;}.b{fill:none;}.c{clip-path:url(#a);}</style><clipPath id="a"><path class="a" d="M16.784-21.437a2.126,2.126,0,0,1,1.484.6h0l2.215,2.162a2.125,2.125,0,0,1,.642,1.522h0V-4.687A2.125,2.125,0,0,1,19-2.562H5.5A2.125,2.125,0,0,1,3.375-4.687h0V-19.312A2.125,2.125,0,0,1,5.5-21.437H16.784Zm0,2H5.5a.125.125,0,0,0-.125.125h0V-4.687a.125.125,0,0,0,.125.125H19a.125.125,0,0,0,.125-.125h0V-17.15a.125.125,0,0,0-.038-.09h0L16.872-19.4a.126.126,0,0,0-.088-.035Zm-4.5,10.375a1,1,0,0,1,1,1,1,1,0,0,1-.883.993l-.117.007h-4.5a1,1,0,0,1-1-1,1,1,0,0,1,.883-.993l.117-.007Zm4.5-3.375a1,1,0,0,1,1,1,1,1,0,0,1-.883.993l-.117.007h-9a1,1,0,0,1-1-1,1,1,0,0,1,.883-.993l.117-.007Zm0-3.375a1,1,0,0,1,1,1,1,1,0,0,1-.883.993l-.117.007h-9a1,1,0,0,1-1-1,1,1,0,0,1,.883-.993l.117-.007Z"/></clipPath></defs><path class="b" d="M0,0H24V-24H0Z" transform="translate(0 24)"/><g class="c" transform="translate(0 24)"><path d="M-1.625-26.437h27.75V2.438H-1.625Z"/></g></svg>