<svg xmlns="http://www.w3.org/2000/svg" width="40" height="40" viewBox="0 0 40 40"><defs><style>.a{fill:#713c39;}</style></defs><g transform="translate(-0.013 0)"><path class="a" d="M252.622,421.027h-1.333V418.6a2.591,2.591,0,0,0-2.588-2.588H237.72a2.591,2.591,0,0,0-2.588,2.588v2.431h-1.961a1.176,1.176,0,1,0,0,2.353h19.451a1.176,1.176,0,1,0,0-2.353Z" transform="translate(-213.786 -383.38)"/><path class="a" d="M14.232,216.686.7,230.218a2.357,2.357,0,0,0,0,3.328l1.885,1.885a2.352,2.352,0,0,0,3.328,0L19.446,221.9Z" transform="translate(0 -199.692)"/><path class="a" d="M223.745,135.855l1.885,1.885c1.185-1.185-.059.052,7.016-6.96l-1.8-1.8C223.627,135.94,224.889,134.711,223.745,135.855Z" transform="translate(-206.184 -118.86)"/><path class="a" d="M268.995,180.156l1.886,1.886-.111.111a2.356,2.356,0,0,0,0,3.328c2.385,2.385,2.325,2.321,2.329,2.329a2.356,2.356,0,0,0,3.328,0l7.21-7.21a2.352,2.352,0,0,0,0-3.328l-2.329-2.329a2.362,2.362,0,0,0-3.438.111l-1.858-1.858C268.82,180.322,270.1,179.052,268.995,180.156Z" transform="translate(-247.884 -159.612)"/><path class="a" d="M99.173,13.556a2.359,2.359,0,0,0,3.439-.111l1.886,1.886c1.178-1.178-.2.161,7.1-6.878L109.6,6.458a2.37,2.37,0,0,0,.8-1.775,2.338,2.338,0,0,0-.689-1.664L107.382.69a2.352,2.352,0,0,0-3.328,0L96.844,7.9a2.352,2.352,0,0,0,0,3.328Z" transform="translate(-88.601 0)"/></g></svg>