<svg xmlns="http://www.w3.org/2000/svg" xmlns:xlink="http://www.w3.org/1999/xlink" width="24" height="24" viewBox="0 0 24 24"><defs><style>.a{fill:none;}.b{clip-path:url(#a);}.c{clip-path:url(#b);}.d{clip-path:url(#c);}</style><clipPath id="a"><path d="M20.125-22.375H3.875a2.25,2.25,0,0,0-2.25,2.25v12.5l.005.154a2.25,2.25,0,0,0,2.245,2.1h1.5v2.75l.006.11a1,1,0,0,0,1.594.69l4.733-3.55h8.417a2.25,2.25,0,0,0,2.25-2.25v-12.5A2.25,2.25,0,0,0,20.125-22.375Zm-16.25,2h16.25a.25.25,0,0,1,.25.25v12.5a.25.25,0,0,1-.25.25h-8.75l-.129.008a1,1,0,0,0-.471.192l-3.4,2.55v-1.75a1,1,0,0,0-1-1h-2.5a.25.25,0,0,1-.25-.25v-12.5A.25.25,0,0,1,3.875-20.375Z"/></clipPath><clipPath id="b"><path d="M11.6-19.852a3.5,3.5,0,0,1,3.806,2.692,3.5,3.5,0,0,1-2.244,4.086.25.25,0,0,0-.159.174L13-12.838v.213a1,1,0,0,1-1,1,1,1,0,0,1-.993-.883L11-12.625v-.213A2.25,2.25,0,0,1,12.344-14.9l.156-.062a1.5,1.5,0,0,0,.962-1.751,1.5,1.5,0,0,0-1.631-1.154,1.5,1.5,0,0,0-1.324,1.349l-.007.141a1,1,0,0,1-1,1,1,1,0,0,1-1-1A3.5,3.5,0,0,1,11.6-19.852Z"/></clipPath><clipPath id="c"><path d="M12-11.125l.134.007a1.313,1.313,0,0,1,1.178,1.306A1.313,1.313,0,0,1,12-8.5a1.313,1.313,0,0,1-1.312-1.312,1.313,1.313,0,0,1,1.178-1.306Z"/></clipPath></defs><path class="a" d="M0,0H24V-24H0Z" transform="translate(0 24)"/><g transform="translate(0 24)"><g class="b"><path d="M-3.375-27.375h30.75V3.377H-3.375Z"/></g><g class="c"><path d="M3.5-24.875h17v18.25H3.5Z"/></g><g class="d"><path d="M5.688-16.125H18.313V-3.5H5.688Z"/></g></g></svg>