<svg xmlns="http://www.w3.org/2000/svg" xmlns:xlink="http://www.w3.org/1999/xlink" width="24" height="24" viewBox="0 0 24 24"><defs><style>.a{fill:none;}.b{clip-rule:evenodd;}.c{clip-path:url(#a);}.d{clip-path:url(#b);}</style><clipPath id="a"><path class="a" d="M0,0H24V-24H0Z"/></clipPath><clipPath id="b"><path class="b" d="M4.585-20.625h9.255a2.073,2.073,0,0,1,1.974,1.975v3.524a1,1,0,0,1-1,1,1,1,0,0,1-.993-.883l-.007-.117v-3.42l-.007-.04-.017-.04H4.635c-.034,0-.062.025-.07.079l0,.047V-4.955a.138.138,0,0,0,.02.068l0,.012H13.74c.032,0,.059-.022.069-.07l0-.056V-8.375a1,1,0,0,1,1-1,1,1,0,0,1,.993.883l.007.117v3.33a2.082,2.082,0,0,1-1.868,2.157l-.154.013H4.534A2.073,2.073,0,0,1,2.561-4.851l0-13.6a2.081,2.081,0,0,1,1.868-2.158ZM18.238-15.35l.094.083,2.813,2.813a1.006,1.006,0,0,1,.08.09l-.08-.09a1.009,1.009,0,0,1,.1.112q.027.036.05.075l.021.037c.011.02.021.04.031.061s.015.034.022.052.015.04.022.06.009.03.014.046.011.043.016.065.007.035.009.052.005.041.007.061,0,.037,0,.055,0,.021,0,.032v.033q0,.026,0,.052l0-.085a1.008,1.008,0,0,1-.011.149c0,.017-.006.034-.009.052s-.01.044-.015.065-.009.031-.014.046-.014.039-.021.059-.015.035-.023.052-.02.041-.031.061l-.021.036q-.024.038-.05.074l-.013.018-.01.013-.073.082L18.332-8.227a1,1,0,0,1-1.414,0,1,1,0,0,1-.083-1.32l.083-.094,1.1-1.105h-9.4a1,1,0,0,1-1-1,1,1,0,0,1,.883-.993l.117-.007h9.4l-1.105-1.105a1,1,0,0,1-.083-1.32l.083-.094A1,1,0,0,1,18.238-15.35Z"/></clipPath></defs><g class="c" transform="translate(0 24)"><path class="a" d="M-5-29H29V5H-5Z"/></g><g class="d" transform="translate(0 24)"><path d="M-2.439-25.625H26.438V2.125H-2.439Z"/></g></svg>