<svg xmlns="http://www.w3.org/2000/svg" width="24" height="24.001" viewBox="0 0 24 24.001"><defs><style>.a{fill:none;}.b{fill:#555;fill-rule:evenodd;}</style></defs><path class="a" d="M5.776-32.225h24v24h-24Z" transform="translate(-5.776 32.225)"/><path class="b" d="M15.809-26.564a8.263,8.263,0,0,1,10.837,4.373,8.261,8.261,0,0,1-1.053,8.269l4.868,4.869a1.071,1.071,0,0,1,0,1.515,1.072,1.072,0,0,1-1.414.089l-.1-.089-4.867-4.869a8.278,8.278,0,0,1-1.806,1.053,8.263,8.263,0,0,1-10.837-4.373A8.263,8.263,0,0,1,15.809-26.564Zm8.865,5.211a6.121,6.121,0,0,0-8.027-3.239,6.121,6.121,0,0,0-3.239,8.027,6.121,6.121,0,0,0,8.027,3.239,6.1,6.1,0,0,0,1.911-1.28.2.2,0,0,1,.023-.026l.032-.029A6.123,6.123,0,0,0,24.675-21.353Z" transform="translate(-8.776 29.225)"/></svg>