<svg xmlns="http://www.w3.org/2000/svg" width="24" height="24" viewBox="0 0 24 24"><defs><style>.a{fill:#fff;}.b{fill:none;stroke:#000;stroke-width:2px;}</style></defs><rect class="a" width="24" height="24"/><path class="b" d="M32.035-20.028a1.94,1.94,0,0,0-1.54-1.364l-4.6-.694-2.065-4.341a1.9,1.9,0,0,0-1.7-1.1,1.9,1.9,0,0,0-1.7,1.1l-2.058,4.34-4.6.7a1.943,1.943,0,0,0-1.538,1.354,2.044,2.044,0,0,0,.485,2.047l3.324,3.367-.786,4.76A2.035,2.035,0,0,0,16-7.918a1.836,1.836,0,0,0,2,.154l4.12-2.252,4.124,2.257a1.836,1.836,0,0,0,2.005-.155,2.035,2.035,0,0,0,.755-1.948l-.79-4.761,3.324-3.368A2.055,2.055,0,0,0,32.035-20.028Z" transform="translate(-10.125 29.531)"/></svg>