<svg xmlns="http://www.w3.org/2000/svg" xmlns:xlink="http://www.w3.org/1999/xlink" width="24" height="24" viewBox="0 0 24 24"><defs><style>.a{fill:none;}.b,.e{fill:#713c39;}.b{clip-rule:evenodd;}.c{clip-path:url(#a);}.d{clip-path:url(#b);}</style><clipPath id="a"><path class="a" d="M0,0H24V-24H0Z"/></clipPath><clipPath id="b"><path class="b" d="M12.5-21.437A4.937,4.937,0,0,1,17.438-16.5a4.94,4.94,0,0,1-3.554,4.741,8.312,8.312,0,0,1,6.929,8.2,1,1,0,0,1-1,1,1,1,0,0,1-1-1A6.312,6.312,0,0,0,12.5-9.875,6.313,6.313,0,0,0,6.188-3.562a1,1,0,0,1-1,1,1,1,0,0,1-1-1,8.315,8.315,0,0,1,6.929-8.2A4.936,4.936,0,0,1,7.563-16.5,4.937,4.937,0,0,1,12.5-21.437Zm0,2A2.937,2.937,0,0,0,9.563-16.5,2.937,2.937,0,0,0,12.5-13.562,2.937,2.937,0,0,0,15.438-16.5,2.937,2.937,0,0,0,12.5-19.437Z"/></clipPath></defs><g class="c" transform="translate(0 24)"><path class="a" d="M-5-29H29V5H-5Z"/></g><g class="d" transform="translate(0 24)"><path class="e" d="M-.812-26.437H25.813V2.438H-.812Z"/></g></svg>